<?xml version="1.0" standalone="no"?><!DOCTYPE svg PUBLIC "-//W3C//DTD SVG 1.1//EN" "http://www.w3.org/Graphics/SVG/1.1/DTD/svg11.dtd"><svg t="1741251217451" class="icon" viewBox="0 0 1432 1024" version="1.1" xmlns="http://www.w3.org/2000/svg" p-id="15097" id="mx_n_1741251217452" width="179" height="128" xmlns:xlink="http://www.w3.org/1999/xlink"><path d="M101.047211 1023.656949S103.105516 255.909092 760.734043 271.689432c563.975638 13.378984 583.186487 751.967517 583.186487 751.967517" fill="#FFF0D6" p-id="15098" data-spm-anchor-id="a313x.search_index.0.i0.b33d3a81lUQ7l9" class=""></path><path d="M1327.111037 1024c0-7.204068-25.728816-720.406837-566.720045-735.158025-171.525437-4.11661-313.205449 46.654919-419.894271 150.599334-218.523407 212.348491-222.296967 580.44208-222.296967 583.186488h-34.305087c0-15.437289 3.77356-385.589183 232.588493-608.572252 113.54984-110.462382 263.463072-164.321369 445.966137-160.204759 573.924113 13.722035 600.339031 760.88684 600.339031 768.43396z" fill="#383838" p-id="15099"></path><path d="M707.904208 846.985749c87.477973 0 127.614925-27.44407 146.139673-50.428479h31.56068s-13.035933 88.850177-177.700353 88.850177c-145.11052 0-177.700353-88.850177-177.700353-88.850177h37.049494a184.21832 184.21832 0 0 0 140.650859 50.428479z" fill="#383838" p-id="15100"></path><path d="M1071.538135 21.605344a347.510536 347.510536 0 1 1-351.284095 343.050875A347.510536 347.510536 0 0 1 1071.538135 21.605344z" fill="#FFFFFF" p-id="15101"></path><path d="M1067.764576 733.435909h-4.459662A364.66308 364.66308 0 0 1 1067.764576 4.4528h4.459661A364.66308 364.66308 0 0 1 1067.764576 733.435909zM1067.764576 38.757888a328.299687 328.299687 0 1 0 4.11661 0z" fill="#383838" p-id="15102"></path><path d="M1395.378161 370.145033a329.671891 329.671891 0 0 1-626.753948 137.22035c108.061026 36.363393 325.212229 49.399326 431.901051-83.018312 77.872549-96.397296 61.406107-254.200698 47.341021-331.044094a327.613585 327.613585 0 0 1 147.511876 276.842056z" fill="#DDDDDD" p-id="15103"></path><path d="M924.026259 293.301637m-74.098989 0a74.098989 74.098989 0 1 0 148.197978 0 74.098989 74.098989 0 1 0-148.197978 0Z" fill="#333333" p-id="15104"></path><path d="M372.743504 21.605344A347.510536 347.510536 0 1 1 21.459408 364.99927 347.510536 347.510536 0 0 1 372.743504 21.605344z" fill="#FFFFFF" p-id="15105"></path><path d="M368.969944 733.435909h-4.459661a366.721385 366.721385 0 1 1 4.459661 0zM368.626893 38.757888a325.55528 325.55528 0 1 0 4.116611 0h-4.116611z" fill="#383838" p-id="15106"></path><path d="M696.583529 370.145033a329.671891 329.671891 0 0 1-626.753948 137.22035c108.061026 36.363393 325.212229 49.399326 431.901051-83.018312 77.872549-96.397296 61.406107-254.200698 47.341021-331.044094a327.613585 327.613585 0 0 1 147.511876 276.842056z" fill="#DDDDDD" p-id="15107"></path><path d="M225.231627 293.301637m-74.098989 0a74.098989 74.098989 0 1 0 148.197978 0 74.098989 74.098989 0 1 0-148.197978 0Z" fill="#333333" p-id="15108"></path></svg>